<svg xmlns="http://www.w3.org/2000/svg" width="120" height="18" viewBox="0 0 120 18"><defs><clipPath id="bpy3a"><path d="M0 5.913h11.816v11.082H0z"/></clipPath><clipPath id="bpy3b"><path d="M17.765 5.916h11.791v11.585H17.765z"/></clipPath><clipPath id="bpy3c"><path d="M52.994.295h4.491v16.699h-4.491z"/></clipPath><clipPath id="bpy3d"><path d="M70.463.295H82.29v17.207H70.463z"/></clipPath></defs><g><g><g><g/><g clip-path="url(#bpy3a)"><path fill="#ff6700" d="M5.907 5.913A5.973 5.973 0 0 0 1.73 7.608 5.728 5.728 0 0 0 0 11.705v5.29h4.483V11.794c.004-.632.157-1.175.418-1.594.266-.414.607-.658 1.006-.66.4.002.742.246 1.005.66.264.42.416.962.418 1.594v5.2h4.486v-5.289a5.73 5.73 0 0 0-1.73-4.097 5.972 5.972 0 0 0-4.18-1.695"/></g></g><g><path fill="#ff6700" d="M113.292 5.913a5.97 5.97 0 0 0-4.179 1.695 5.748 5.748 0 0 0-1.732 4.097v5.29h4.488l-.002-2.314v-2.887c.002-.632.157-1.175.42-1.594.262-.414.606-.658 1.005-.66.4.002.742.246 1.005.66.26.42.416.962.419 1.594v5.2h4.484v-5.289a5.733 5.733 0 0 0-1.73-4.097 5.971 5.971 0 0 0-4.178-1.695"/></g><g><path fill="#ff6700" d="M16.646 4.488a2.409 2.409 0 0 0 0-3.455A2.517 2.517 0 0 0 14.88.316c-.687 0-1.31.274-1.763.717a2.408 2.408 0 0 0 0 3.455l.55.54c.92.902.988 1.141.113 1.997l-.503.493a2.198 2.198 0 0 0-.663 1.57v7.906h4.534V9.09a2.19 2.19 0 0 0-.665-1.571l-.5-.492c-.874-.857-.808-1.096.11-1.997z"/></g><g><g/><g clip-path="url(#bpy3b)"><path fill="#ff6700" d="M24.68 13.552c-.265.476-.608.76-1.006.76-.4 0-.741-.284-1.007-.76-.259-.486-.416-1.11-.416-1.844 0-.732.157-1.356.416-1.842.266-.477.607-.76 1.007-.762.398.002.741.285 1.005.762.193.36.33.798.387 1.298h4.49a5.73 5.73 0 0 0-1.703-3.55 5.959 5.959 0 0 0-4.179-1.698 5.95 5.95 0 0 0-4.18 1.698 5.708 5.708 0 0 0-1.73 4.094 5.717 5.717 0 0 0 1.73 4.097 5.967 5.967 0 0 0 4.18 1.696c1.455 0 2.8-.524 3.83-1.382.749-.624 1.862-1.877 2.052-3.864h-4.49c-.057.5-.194.938-.387 1.297"/></g></g><g><path fill="#ff6700" d="M46.768 5.908c1.643-.002 3.053.634 4.161 1.73 1.904 1.884 1.427 4.67 1.427 4.67h-6.964c.065.452.19.853.37 1.185.264.478.606.762 1.006.762.957 0 1.51-1.368 1.51-1.368h3.998s-.059 1.484-1.292 2.872c-.982.965-2.434 1.734-4.187 1.732a5.955 5.955 0 0 1-4.207-1.696 5.734 5.734 0 0 1-1.732-4.096c0-1.592.667-3.053 1.732-4.096a5.965 5.965 0 0 1 4.178-1.695zm1.297 4.75c-.051-.247-.161-.62-.282-.834-.282-.5-.61-.778-1.015-.78-.4.002-.805.344-1.006.763-.106.222-.214.52-.294.858z"/></g><g><path fill="#ff6700" d="M88.76 5.908c1.641-.002 3.05.634 4.16 1.73 1.902 1.884 1.426 4.67 1.426 4.67h-6.963c.064.452.193.853.37 1.185.264.478.605.762 1.008.762.954 0 1.505-1.368 1.505-1.368h4s-.057 1.484-1.294 2.872c-.98.965-2.43 1.734-4.187 1.732a5.957 5.957 0 0 1-4.204-1.696 5.729 5.729 0 0 1-1.732-4.096c0-1.592.666-3.053 1.732-4.096a5.96 5.96 0 0 1 4.18-1.695zm1.297 4.75c-.052-.247-.164-.62-.283-.834-.283-.5-.612-.778-1.013-.78-.403.002-.807.344-1.009.763-.104.222-.214.52-.296.858z"/></g><g><g/><g clip-path="url(#bpy3c)"><path fill="#ff6700" d="M55.233.295c-1.238.001-2.242.986-2.24 2.2L53 16.994l4.486-.002-.007-14.5c0-1.213-1.006-2.2-2.245-2.197"/></g></g><g><path fill="#ff6700" d="M64.017 5.913c3.264 0 5.91 2.592 5.91 5.792 0 3.2-2.646 5.792-5.91 5.792-3.263 0-5.912-2.592-5.912-5.792 0-3.2 2.649-5.792 5.912-5.792m-.002 8.4c.786 0 1.423-1.167 1.423-2.608s-.637-2.608-1.423-2.608c-.782 0-1.424 1.167-1.424 2.608 0 1.44.642 2.609 1.424 2.609"/></g><g><path fill="#ff6700" d="M100.918 5.913c3.263 0 5.909 2.592 5.909 5.792 0 3.2-2.646 5.792-5.909 5.792-3.264 0-5.91-2.592-5.91-5.792 0-3.2 2.646-5.792 5.91-5.792m0 8.4c.786 0 1.423-1.167 1.423-2.608s-.637-2.608-1.423-2.608c-.787 0-1.422 1.167-1.422 2.608 0 1.44.635 2.609 1.422 2.609"/></g><g><g/><g clip-path="url(#bpy3d)"><path fill="#ff6700" d="M82.28 11.71a5.732 5.732 0 0 1-1.73 4.096c-.68.67-2.14 1.696-4.179 1.696-2.036 0-3.497-1.026-4.177-1.696v-.001a5.729 5.729 0 0 1-1.73-4.096c0-1.592.664-3.055 1.73-4.094a5.955 5.955 0 0 1 4.177-1.697c.492 0 .968.06 1.428.171l-.001-3.594c0-1.214 1.004-2.199 2.243-2.2 1.236-.003 2.241.983 2.241 2.197l.007 9.217-.008-.005zm-5.909 2.6c.787 0 1.425-1.167 1.425-2.607 0-1.441-.638-2.606-1.425-2.606-.786 0-1.423 1.165-1.423 2.606 0 1.44.637 2.607 1.423 2.607z"/></g></g><g><path fill="#ff6700" d="M41.508 16.227a.746.746 0 0 0-.118-.402l-2.456-3.642 1.7-3.027a2.171 2.171 0 0 0-.793-3.009c-1.066-.615-2.442-.269-3.068.778l-2.035 3.557V8.111c0-1.214-1.003-2.199-2.242-2.199-1.238 0-2.244.985-2.244 2.199v8.882h4.486v-3.477l2.37 3.477 3.62-.001c.432 0 .78-.342.78-.765"/></g></g></g></svg>